<svg width="16" height="17" viewBox="0 0 16 17" fill="none" xmlns="http://www.w3.org/2000/svg">
<path fill-rule="evenodd" clip-rule="evenodd" d="M1.33334 4.50001C1.33334 4.13182 1.63181 3.83334 2 3.83334H14C14.3682 3.83334 14.6667 4.13182 14.6667 4.50001C14.6667 4.8682 14.3682 5.16668 14 5.16668H2C1.63181 5.16668 1.33334 4.8682 1.33334 4.50001ZM1.33334 8.50001C1.33334 8.13182 1.63181 7.83334 2 7.83334H14C14.3682 7.83334 14.6667 8.13182 14.6667 8.50001C14.6667 8.8682 14.3682 9.16668 14 9.16668H2C1.63181 9.16668 1.33334 8.8682 1.33334 8.50001ZM1.33334 12.5C1.33334 12.1318 1.63181 11.8333 2 11.8333H14C14.3682 11.8333 14.6667 12.1318 14.6667 12.5C14.6667 12.8682 14.3682 13.1667 14 13.1667H2C1.63181 13.1667 1.33334 12.8682 1.33334 12.5Z" fill="#A445DE"/>
</svg>
