<svg width="20" height="20" viewBox="0 0 20 20" fill="none" xmlns="http://www.w3.org/2000/svg">
<path fill-rule="evenodd" clip-rule="evenodd" d="M9.16663 3.33334C5.94496 3.33334 3.33329 5.94501 3.33329 9.16667C3.33329 12.3883 5.94496 15 9.16663 15C10.7382 15 12.1647 14.3785 13.2136 13.3678C13.2355 13.3393 13.2596 13.3119 13.2857 13.2857C13.3118 13.2596 13.3393 13.2356 13.3678 13.2137C14.3784 12.1648 15 10.7383 15 9.16667C15 5.94501 12.3883 3.33334 9.16663 3.33334ZM15.0265 13.8481C16.0529 12.565 16.6666 10.9375 16.6666 9.16667C16.6666 5.02454 13.3088 1.66667 9.16663 1.66667C5.02449 1.66667 1.66663 5.02454 1.66663 9.16667C1.66663 13.3088 5.02449 16.6667 9.16663 16.6667C10.9375 16.6667 12.565 16.0529 13.848 15.0266L16.9107 18.0893C17.2361 18.4147 17.7638 18.4147 18.0892 18.0893C18.4147 17.7638 18.4147 17.2362 18.0892 16.9107L15.0265 13.8481Z" fill="#2F333C"/>
</svg>
