<svg width="78" height="41" viewBox="0 0 78 41" fill="none" xmlns="http://www.w3.org/2000/svg">
<path d="M51.6673 41H24.4693C22.8309 41 21.5201 39.6561 21.6294 38.0435L23.4863 12.1871C23.5955 10.7357 24.797 9.60684 26.3262 9.60684H49.8104C51.285 9.60684 52.5411 10.7357 52.6503 12.1871L54.5072 38.0435C54.6164 39.6024 53.3057 41 51.6673 41Z" fill="#A9CF42"/>
<path d="M0.438995 34.5493V18.7453C0.438995 16.2188 1.74975 14.7673 4.15278 14.7673H10.2696C16.8779 14.7673 20.5371 17.6164 20.5371 23.0994C20.5371 28.5287 17.0418 31.2703 10.4881 31.2703H7.70272V34.5493C7.70272 36.6458 6.61042 37.8284 4.53507 37.8284H3.4974C1.5859 37.8284 0.438995 36.6996 0.438995 34.5493ZM13.4918 23.0994C13.4918 21.1642 12.2903 20.0891 10.0511 20.0891H7.59348V26.056H10.1604C12.3449 26.0022 13.4918 24.9809 13.4918 23.0994Z" fill="#5D2C83"/>
<path d="M56.1457 17.8314C56.1457 15.6274 57.3472 14.5523 59.3133 14.5523H60.1871C62.2625 14.5523 63.3002 15.6274 63.3002 17.8314V27.6687C63.3002 30.4639 64.447 31.8616 66.7409 31.8616C69.0347 31.8616 70.0723 30.5177 70.0723 27.6687V17.8314C70.0723 15.5737 71.2738 14.5523 73.2399 14.5523H74.1684C76.2437 14.5523 77.2814 15.6274 77.2814 17.8314V27.5611C77.2814 34.4418 73.6769 37.9897 66.6862 37.9897C59.641 37.9897 56.091 34.4956 56.091 27.5611V17.8314H56.1457Z" fill="#5D2C83"/>
<path d="M28.6746 34.2268V32.8829C28.6746 28.905 32.7161 26.6473 35.7745 25.2497C38.4506 24.0133 40.526 23.422 40.526 21.9706C40.526 20.5192 39.5429 19.8204 37.5768 19.8204C35.1737 19.8204 33.7538 21.5943 33.4261 23.3682C33.4261 23.422 28.7839 23.637 28.7839 20.1967C28.7839 18.4765 29.6031 17.0251 31.1869 15.95C32.7161 14.8749 35.0645 14.2298 38.0683 14.2298C44.1851 14.2298 47.5166 16.9713 47.5166 21.5943C47.5166 26.0022 44.4582 27.3999 41.1813 28.6363C38.9421 29.4963 36.8122 30.1414 35.6653 31.324C35.4468 31.539 35.2284 31.7541 35.0645 31.9153H44.2943C46.752 31.9153 47.6804 32.8829 47.6804 34.5494V34.8181C47.6804 36.5921 46.8066 37.5596 44.2943 37.5596H32.9892C29.6577 37.6134 28.6746 37.1296 28.6746 34.2268Z" fill="white"/>
<path d="M28.4016 11.542C28.4016 6.32776 32.7161 2.08109 38.0137 2.08109C43.3113 2.08109 47.6258 6.32776 47.6258 11.542" stroke="#A9CF42" stroke-width="2.8346" stroke-miterlimit="10"/>
</svg>
