<svg width="54" height="29" viewBox="0 0 54 29" fill="none" xmlns="http://www.w3.org/2000/svg">
<path d="M36.051 29H17.0735C15.9303 29 15.0158 28.0593 15.092 26.9304L16.3876 8.83096C16.4638 7.81499 17.3022 7.02478 18.3692 7.02478H34.7554C35.7842 7.02478 36.6607 7.81499 36.7369 8.83096L38.0326 26.9304C38.1088 28.0216 37.1942 29 36.051 29Z" fill="white"/>
<path d="M0.306305 24.4846V13.4217C0.306305 11.6532 1.22089 10.6372 2.89761 10.6372H7.16563C11.7766 10.6372 14.3298 12.6315 14.3298 16.4697C14.3298 20.2702 11.8909 22.1892 7.31806 22.1892H5.37459V24.4846C5.37459 25.9521 4.61243 26.78 3.16436 26.78H2.44032C1.10656 26.78 0.306305 25.9898 0.306305 24.4846ZM9.41397 16.4697C9.41397 15.115 8.5756 14.3625 7.0132 14.3625H5.29837V18.5393H7.08942C8.61371 18.5016 9.41397 17.7867 9.41397 16.4697Z" fill="white"/>
<path d="M39.1758 12.7819C39.1758 11.2392 40.0142 10.4866 41.386 10.4866H41.9957C43.4438 10.4866 44.1679 11.2392 44.1679 12.7819V19.668C44.1679 21.6247 44.9681 22.603 46.5686 22.603C48.1691 22.603 48.8932 21.6623 48.8932 19.668V12.7819C48.8932 11.2015 49.7315 10.4866 51.1034 10.4866H51.7512C53.1993 10.4866 53.9233 11.2392 53.9233 12.7819V19.5927C53.9233 24.4092 51.4082 26.8927 46.5305 26.8927C41.6147 26.8927 39.1377 24.4468 39.1377 19.5927V12.7819H39.1758Z" fill="white"/>
<path d="M20.0078 24.2588V23.3181C20.0078 20.5335 22.8278 18.9531 24.9618 17.9748C26.829 17.1093 28.2771 16.6954 28.2771 15.6794C28.2771 14.6634 27.5912 14.1743 26.2193 14.1743C24.5426 14.1743 23.5518 15.416 23.3232 16.6578C23.3232 16.6954 20.084 16.8459 20.084 14.4377C20.084 13.2335 20.6556 12.2176 21.7608 11.465C22.8278 10.7124 24.4664 10.2609 26.5623 10.2609C30.8303 10.2609 33.1548 12.1799 33.1548 15.416C33.1548 18.5016 31.0208 19.4799 28.7344 20.3454C27.172 20.9474 25.6858 21.399 24.8855 22.2268C24.7331 22.3773 24.5807 22.5278 24.4664 22.6407H30.9065C32.6213 22.6407 33.2692 23.3181 33.2692 24.4846V24.6727C33.2692 25.9144 32.6594 26.5918 30.9065 26.5918H23.0183C20.6937 26.6294 20.0078 26.2907 20.0078 24.2588Z" fill="#17191E"/>
<path d="M19.8173 8.37938C19.8173 4.72938 22.8277 1.75671 26.5242 1.75671C30.2206 1.75671 33.231 4.72938 33.231 8.37938" stroke="white" stroke-width="2.8346" stroke-miterlimit="10"/>
</svg>
